<?xml version="1.0" encoding="utf-8" ?>
<svg xmlns="http://www.w3.org/2000/svg" xmlns:xlink="http://www.w3.org/1999/xlink" width="608" height="608">
	<path fill="#295D59" transform="scale(12.16 12.16)" d="M3.51871 2.12361C9.37865 1.6839 15.5164 2.02127 21.4032 2.01667C29.9092 2.01003 38.4815 1.78483 46.9802 2.08743C47.0485 3.40202 46.9975 4.74386 46.9996 6.06152C45.57 8.53116 43.032 10.733 41.0665 12.8052C37.7276 16.3252 34.3442 19.8167 31.0961 23.4205C30.8163 26.423 31.0234 29.6027 31.026 32.625C31.0172 34.9085 31.4853 46.1247 30.8305 47.2003C30.6844 47.4404 30.5299 47.6182 30.2513 47.683C28.7484 48.033 20.8421 42.6964 19.1336 41.6522C18.5332 35.9771 19.7677 29.9492 18.8483 24.3435C18.2628 20.7739 5.65013 10.425 3.07981 6.16373Q3.00597 5.29337 2.9524 4.42151C2.89768 3.4715 2.86934 2.85156 3.51871 2.12361ZM4.69868 3.97971C5.62358 7.37822 17.3715 18.7416 20.6021 22.0754L29.3881 22.0051C32.0755 19.3596 34.6374 16.5839 37.2259 13.8421C39.9188 10.9541 43.8872 7.61764 45.4777 3.98263C31.8944 4.00431 18.279 4.20446 4.69868 3.97971ZM20.8953 23.9479C21.21 29.439 21.0088 34.9972 21.026 40.4983C23.6836 42.0486 26.3561 43.5782 28.9945 45.1608C29.0133 38.1173 28.7364 30.9665 29.0376 23.9386C26.3209 23.9906 23.6118 24.0442 20.8953 23.9479Z"/>
</svg>
