<?xml version="1.0" encoding="utf-8" ?>
<svg xmlns="http://www.w3.org/2000/svg" xmlns:xlink="http://www.w3.org/1999/xlink" width="510" height="510">
	<path fill="#2E5F5B" transform="matrix(10.2 0 0 10.2 0 6.10352e-05)" d="M0 0L50 0L50 20.821L50 25.6129L50 50L0 50L0 48L0 46.9737L0 26.4173L0 20.0377L0 0ZM23.3892 3.09667C16.8329 3.74671 10.6519 6.18381 6.38035 11.3953Q5.79495 12.109 5.28156 12.8762Q4.76817 13.6434 4.33165 14.4567Q3.89512 15.2701 3.53958 16.122Q3.18404 16.9738 2.91284 17.8562Q2.64164 18.7386 2.45734 19.6431Q2.27303 20.5476 2.17737 21.4657Q2.0817 22.3838 2.07557 23.3069Q2.06945 24.23 2.15292 25.1493C2.71416 30.7223 5.79226 34.5679 9.67725 38.3168C8.91621 40.058 8.18511 41.629 6.96829 43.0987C6.33403 43.8647 3.52738 46.038 3.35498 46.5485C3.3354 46.6064 3.31851 46.6616 3.30669 46.7219C4.76997 47.5719 7.77411 46.7042 9.34707 46.2871C12.1893 45.5335 14.9561 44.5494 17.6933 43.4813C20.2493 42.5254 23.6135 43.3118 26.3175 43.2666C34.4962 43.1299 42.7643 38.2787 46.2045 30.7301C48.1454 26.4713 48.2623 21.3004 46.6267 16.9283C44.6339 11.6013 40.4978 7.48487 35.3544 5.14585C31.8116 3.53472 27.2762 2.61085 23.3892 3.09667ZM0 48L0 50L50 50L50 25.6129C47.8848 32.9972 45.3006 38.2544 38.2769 42.1445C34.591 44.1859 29.2711 45.7275 24.9996 45.4714C23.3464 45.3723 21.1958 44.9269 19.5836 45.2251C13.7553 46.3029 7.89952 50.563 1.68999 48.7796C1.09567 48.6089 0.536447 48.3017 0 48ZM0 0L0 20.0377C0.742738 18.1462 1.22492 16.2139 2.06934 14.344C4.32368 9.35189 8.8762 5.41628 13.8438 3.24621Q14.4642 2.97777 15.0969 2.73967Q15.7295 2.50157 16.373 2.29437Q17.0164 2.08717 17.6691 1.91135Q18.3219 1.73554 18.9823 1.59152Q19.6428 1.4475 20.3095 1.33561Q20.9761 1.22373 21.6474 1.14424Q22.3187 1.06476 22.9931 1.01785Q23.6674 0.97095 24.3433 0.956739Q25.0191 0.942529 25.6948 0.961045Q26.3706 0.979561 27.0446 1.03076Q27.7187 1.08196 28.3894 1.16572Q29.0602 1.24948 29.7261 1.36561Q30.3921 1.48174 31.0516 1.62997Q31.7112 1.77819 32.3627 1.95816Q33.0143 2.13813 33.6564 2.34943Q34.2986 2.56072 34.9297 2.80285C40.848 5.13071 45.7696 9.56185 48.3186 15.4262C49.0753 17.167 49.5375 18.9864 50 20.821L50 0L0 0ZM0 26.4173L0 46.9737C2.34925 43.9484 5.4994 42.3178 7.30014 38.7341C2.60143 34.9044 2.14165 31.4855 0 26.4173Z"/>
	<path fill="#2E5F5B" transform="matrix(10.2 0 0 10.2 0 6.10352e-05)" d="M23.7957 12.7096C24.4321 12.654 25.2313 12.5754 25.8338 12.8363C26.4778 13.1152 26.6499 13.5511 26.8853 14.1541C26.8143 14.9463 26.7611 15.6037 26.3296 16.289C25.6289 16.316 24.5286 16.4569 23.9205 16.0839C23.5395 15.8501 23.2549 15.5757 23.1471 15.133C22.9539 14.3395 23.3894 13.3729 23.7957 12.7096Z"/>
	<path fill="#2E5F5B" transform="matrix(10.2 0 0 10.2 0 6.10352e-05)" d="M23.4512 19.9794C24.341 19.8852 25.5806 19.7622 26.3704 20.2286C27.19 22.8461 26.7531 31.3057 26.6156 34.3937C25.7245 34.6026 24.7064 34.8125 23.86 34.3801C23.0578 33.3999 23.4451 21.8196 23.4512 19.9794Z"/>
</svg>
